<?xml version="1.0" standalone="no"?>
<!DOCTYPE svg PUBLIC "-//W3C//DTD SVG 20010904//EN"
 "http://www.w3.org/TR/2001/REC-SVG-20010904/DTD/svg10.dtd">
<svg version="1.0" xmlns="http://www.w3.org/2000/svg"
 width="200.000000pt" height="200.000000pt" viewBox="0 0 200.000000 200.000000"
 preserveAspectRatio="xMidYMid meet">

<g transform="translate(0.000000,200.000000) scale(0.100000,-0.100000)"
fill="#000000" stroke="none">
<path d="M560 1810 c-135 -60 -262 -115 -282 -124 l-38 -14 0 -675 0 -675 232
-102 c128 -56 257 -113 287 -126 29 -13 58 -24 65 -24 6 0 -76 87 -182 193
l-192 193 2 233 3 234 80 28 c142 48 137 43 75 64 -30 10 -79 26 -107 37 l-53
19 0 232 0 232 192 192 c106 106 186 193 178 192 -8 0 -125 -49 -260 -109z"/>
<path d="M1408 1727 l192 -193 -2 -233 -3 -234 -104 -35 -103 -36 93 -33 c52
-19 100 -36 107 -38 9 -3 12 -60 12 -237 l0 -233 -197 -198 c-110 -109 -187
-194 -173 -188 24 9 497 216 553 241 l27 13 -2 674 -3 674 -284 124 c-157 69
-289 125 -295 125 -6 0 76 -87 182 -193z"/>
<path d="M657 1531 l37 -69 161 -4 c124 -3 169 -8 200 -22 187 -81 184 -343
-5 -424 -23 -10 -85 -17 -188 -21 l-152 -6 345 -345 345 -345 0 105 0 105
-170 170 c-93 93 -170 172 -170 176 0 3 25 16 55 28 108 45 196 154 225 279
31 133 -46 307 -170 386 -76 49 -119 56 -342 56 l-209 0 38 -69z"/>
<path d="M700 737 l0 -102 168 -168 167 -167 110 0 110 0 -270 270 c-148 149
-273 270 -277 270 -5 0 -8 -46 -8 -103z"/>
</g>
</svg>
